<svg width="54" height="54" viewBox="0 0 54 54" fill="none" xmlns="http://www.w3.org/2000/svg">
<circle cx="27" cy="27" r="27" fill="white"/>
<path opacity="0.95" d="M38.4838 33.2609C38.0998 34.1471 37.6452 34.9628 37.1185 35.7128C36.4006 36.7352 35.8128 37.4429 35.3599 37.836C34.6576 38.481 33.9052 38.8114 33.0996 38.8302C32.5212 38.8302 31.8236 38.6658 31.0117 38.3323C30.1971 38.0004 29.4485 37.836 28.764 37.836C28.0461 37.836 27.2761 38.0004 26.4526 38.3323C25.6277 38.6658 24.9633 38.8396 24.4553 38.8568C23.6827 38.8898 22.9126 38.5499 22.1439 37.836C21.6533 37.4085 21.0397 36.6758 20.3045 35.6377C19.5158 34.5291 18.8673 33.2436 18.3593 31.7781C17.8152 30.1952 17.5425 28.6623 17.5425 27.1783C17.5425 25.4783 17.9102 24.0122 18.6468 22.7835C19.2256 21.7967 19.9957 21.0182 20.9596 20.4467C21.9234 19.8752 22.9648 19.5839 24.0863 19.5653C24.7 19.5653 25.5047 19.7549 26.5048 20.1276C27.502 20.5015 28.1423 20.6911 28.423 20.6911C28.6329 20.6911 29.3442 20.4694 30.55 20.0274C31.6904 19.6175 32.6528 19.4477 33.4412 19.5146C35.5777 19.6868 37.1828 20.528 38.2502 22.0437C36.3395 23.2002 35.3943 24.8199 35.4131 26.8979C35.4304 28.5163 36.0182 29.8632 37.1734 30.9326C37.6969 31.429 38.2816 31.8126 38.9321 32.085C38.791 32.4937 38.6421 32.8851 38.4838 33.2609ZM33.5839 14.0006C33.5839 15.2692 33.1199 16.4537 32.1951 17.55C31.0791 18.8534 29.7292 19.6064 28.2653 19.4876C28.2458 19.3281 28.2359 19.1676 28.2359 19.0069C28.2359 17.7891 28.7666 16.4858 29.7091 15.4201C30.1797 14.8806 30.7782 14.432 31.5039 14.0741C32.2281 13.7215 32.913 13.5266 33.5572 13.4932C33.5761 13.6627 33.5839 13.8323 33.5839 14.0006V14.0006Z" fill="black"/>
</svg>
