<svg width="54" height="54" viewBox="0 0 54 54" fill="none" xmlns="http://www.w3.org/2000/svg">
<circle cx="27" cy="27" r="27" fill="white"/>
<path d="M37.8896 35.7832C26.4663 41.2197 19.3768 36.6712 14.8386 33.9084C14.5578 33.7343 14.0805 33.9491 14.4946 34.4248C16.0065 36.258 20.9613 40.6766 27.4288 40.6766C33.9007 40.6766 37.7509 37.1452 38.2325 36.5291C38.7109 35.9183 38.373 35.5814 37.8895 35.7832H37.8896ZM41.0978 34.0114C40.7911 33.612 39.2325 33.5375 38.2516 33.658C37.2692 33.775 35.7947 34.3754 35.9229 34.7359C35.9887 34.8709 36.123 34.8103 36.7978 34.7497C37.4745 34.6821 39.3702 34.4429 39.7653 34.9593C40.1621 35.4793 39.1606 37.9562 38.9777 38.3556C38.801 38.7551 39.0453 38.8581 39.3772 38.592C39.7045 38.3261 40.2973 37.6373 40.695 36.6627C41.09 35.6826 41.3309 34.3156 41.0977 34.0114H41.0978Z" fill="#FF9900"/>
<path fill-rule="evenodd" clip-rule="evenodd" d="M30.2103 24.6901C30.2103 26.1165 30.2463 27.3062 29.5253 28.5729C28.9433 29.603 28.0215 30.2364 26.9916 30.2364C25.5857 30.2364 24.7669 29.1652 24.7669 27.5843C24.7669 24.4634 27.5632 23.897 30.2103 23.897V24.6901ZM33.9026 33.6147C33.6606 33.8309 33.3104 33.8464 33.0375 33.7022C31.8221 32.6929 31.6058 32.2243 30.9364 31.2612C28.9279 33.3108 27.5066 33.9237 24.9008 33.9237C21.8212 33.9237 19.4214 32.0233 19.4214 28.2177C19.4214 25.2463 21.0334 23.2223 23.3249 22.2337C25.3128 21.3581 28.0885 21.2036 30.2103 20.9616V20.4878C30.2103 19.6175 30.2771 18.5876 29.7674 17.8357C29.3193 17.1611 28.4645 16.883 27.7125 16.883C26.317 16.883 25.0707 17.5988 24.7669 19.0819C24.705 19.4116 24.4631 19.736 24.1335 19.7514L20.5801 19.3704C20.2814 19.3033 19.9519 19.0614 20.0343 18.603C20.8531 14.2978 24.741 13 28.2222 13C30.0041 13 32.3318 13.4738 33.7377 14.8231C35.5196 16.4864 35.3496 18.706 35.3496 21.1212V26.8272C35.3496 28.5421 36.0603 29.294 36.7298 30.221C36.9666 30.5505 37.0182 30.9472 36.7194 31.1942C35.9727 31.8173 34.6441 32.9761 33.9129 33.625L33.9025 33.6147" fill="black"/>
</svg>
