<svg width="54" height="54" viewBox="0 0 54 54" fill="none" xmlns="http://www.w3.org/2000/svg">
<path d="M27 54C41.9117 54 54 41.9117 54 27C54 12.0883 41.9117 0 27 0C12.0883 0 0 12.0883 0 27C0 41.9117 12.0883 54 27 54Z" fill="white"/>
<path fill-rule="evenodd" clip-rule="evenodd" d="M16.8113 34.1851H18.7989L16.8113 30.8725L15.1328 28.0829L8 32.367L9.08938 34.1851H16.8113ZM35.3022 34.1851H45.0117L38.9679 24.1153L32.2844 13L29.5311 14.6563L25.1587 17.284L29.5311 24.5643L35.3022 34.1851ZM31.9013 34.1851L29.5311 30.2251L23.7087 20.5378L16.8113 24.6895L16.5757 24.8292L16.8113 25.2193L22.1993 34.1851H31.9013Z" fill="#040404"/>
</svg>
