<svg width="54" height="54" viewBox="0 0 54 54" fill="none" xmlns="http://www.w3.org/2000/svg">
<path d="M27 54C41.9117 54 54 41.9117 54 27C54 12.0883 41.9117 0 27 0C12.0883 0 0 12.0883 0 27C0 41.9117 12.0883 54 27 54Z" fill="white"/>
<g clip-path="url(#clip0)">
<path d="M14.3636 29.2259C14.3636 29.949 13.7601 30.536 13.3056 30.536H8.16655L14.6304 20.21H5.988V21.9212H6.43144C6.43144 21.198 6.89879 20.6129 7.35511 20.6129H11.795L5.29248 30.9371H14.6691V29.2259H14.3636Z" fill="black"/>
<path d="M25.5784 30.1018L20.5773 20.21L15.9939 30.1091C15.9129 30.3262 15.4713 30.6004 14.8457 30.6004V30.9353H17.2855V30.6004C16.8329 30.6004 16.3471 30.3759 16.4649 30.1073L17.5671 27.7171H21.7954L22.9969 30.1018C23.133 30.3428 22.524 30.6022 21.8966 30.6022V30.9371H26.9749L26.9768 30.6022C26.2077 30.6004 25.7385 30.3612 25.5784 30.1018ZM17.7511 27.3307L19.58 23.3159L21.6224 27.3307H17.7511Z" fill="black"/>
<path d="M27.5581 20.624C28.3015 20.624 28.916 20.8153 28.916 21.0472C28.916 22.8871 28.9123 30.0907 28.916 30.0907C28.916 30.3373 28.3107 30.6114 27.5655 30.6114L27.5636 30.9353H32.5353V30.6335C31.7974 30.6335 31.1995 30.3391 31.1995 30.0926V20.5338H32.6328C34.0128 20.5338 35.1315 21.6801 35.1315 22.981C35.1315 24.2819 34.0128 25.338 32.631 25.338H31.6392C31.6392 25.338 34.999 30.4256 35.0046 30.4256C35.137 30.6188 35.2033 30.9371 35.2033 30.9371H38.8262V30.6354C38.1289 30.6354 37.7645 30.3465 37.5621 30.0926L34.3274 25.8716C35.8804 25.7686 37.0819 24.5137 37.0819 23.0233C37.0819 21.4667 35.7442 20.21 34.0938 20.21H27.5581V20.624Z" fill="black"/>
<path d="M49.8958 30.1018L44.8947 20.21L40.3112 30.1091C40.2303 30.3262 39.7905 30.6114 39.1631 30.6114V30.9353H41.6029V30.6335C41.1503 30.6335 40.6664 30.3759 40.7823 30.1073L41.8844 27.7171H46.1127L47.3143 30.1018C47.4523 30.3428 46.8414 30.6133 46.2139 30.6133V30.9371H51.2923L51.2942 30.6243C50.525 30.6243 50.0558 30.3612 49.8958 30.1018ZM42.0666 27.3307L43.8955 23.3159L45.9379 27.3307H42.0666Z" fill="black"/>
</g>
<defs>
<clipPath id="clip0">
<rect width="45.9998" height="10.7272" fill="white" transform="translate(5 20)"/>
</clipPath>
</defs>
</svg>
