<svg width="54" height="54" viewBox="0 0 54 54" fill="none" xmlns="http://www.w3.org/2000/svg">
<path d="M27 54C41.9117 54 54 41.9117 54 27C54 12.0883 41.9117 0 27 0C12.0883 0 0 12.0883 0 27C0 41.9117 12.0883 54 27 54Z" fill="white"/>
<path fill-rule="evenodd" clip-rule="evenodd" d="M14.8436 22.6035C12.3831 25.4931 10.0238 29.0765 10.0002 31.7549C9.99098 32.7627 10.3127 33.6425 11.0844 34.3089C12.1951 35.2686 13.4187 35.607 14.6364 35.609C16.4159 35.6115 18.183 34.8936 19.5665 34.34C21.8966 33.4082 47.6534 22.223 47.6534 22.223C47.902 22.0985 47.8554 21.9433 47.5444 22.0208C47.4189 22.0521 19.504 29.6171 19.504 29.6171C18.9753 29.7667 18.4289 29.8449 17.8794 29.8497C15.7341 29.8624 13.8251 28.6716 13.8406 26.1622C13.8465 25.1803 14.1471 23.9962 14.8436 22.6035Z" fill="black"/>
</svg>
