<svg width="54" height="54" viewBox="0 0 54 54" fill="none" xmlns="http://www.w3.org/2000/svg">
<path d="M27 54C41.9117 54 54 41.9117 54 27C54 12.0883 41.9117 0 27 0C12.0883 0 0 12.0883 0 27C0 41.9117 12.0883 54 27 54Z" fill="white"/>
<path d="M46.2761 28.242C45.743 27.7037 45.0466 27.3588 44.3356 27.1188C43.3774 26.7857 42.3514 26.7093 41.4004 26.3546C41.0889 26.2365 40.779 26.0813 40.5529 25.8313C40.2514 25.4985 40.1864 24.9858 40.3675 24.5797C40.4833 24.3202 40.7089 24.1221 40.963 24.002C41.384 23.8049 41.8622 23.7755 42.3198 23.8109C42.7857 23.8454 43.2587 23.998 43.6065 24.3193C43.9079 24.5917 44.0973 24.9714 44.1741 25.3671C44.1858 25.47 44.2594 25.5798 44.3752 25.5698C45.121 25.5772 45.8663 25.5887 46.6123 25.5873C46.7184 25.6011 46.8201 25.5106 46.7897 25.4002C46.7043 24.8056 46.4965 24.223 46.1565 23.7252C45.7461 23.1185 45.1311 22.6679 44.4534 22.3995C43.8275 22.1463 43.1532 22.0382 42.4819 22.0006H41.7102C40.8851 22.0443 40.0476 22.1641 39.2892 22.5087C38.7357 22.757 38.2313 23.1444 37.9146 23.6678C37.603 24.167 37.4817 24.7616 37.4751 25.3442C37.0739 24.5239 36.4718 23.8072 35.7528 23.2467C34.796 22.4937 33.601 22.0658 32.3873 22.0006H31.7565C30.9194 22.0496 30.1026 22.2785 29.3619 22.6716C28.2734 23.2552 27.3826 24.1487 26.8024 25.239C26.7075 24.7803 26.5592 24.3279 26.3169 23.9244C25.9968 23.3732 25.5145 22.9228 24.955 22.6199C24.2161 22.2132 23.3703 22.0497 22.5357 22.0006H21.7321C21.1266 22.0362 20.5193 22.1066 19.9367 22.2819C19.2611 22.482 18.6052 22.8277 18.1555 23.3821C17.8982 23.6908 17.7304 24.0624 17.62 24.446C17.6203 23.8143 17.6195 23.1824 17.6209 22.5504C17.6197 22.4808 17.6195 22.3998 17.5591 22.3526C17.5091 22.2966 17.4295 22.3012 17.3611 22.2998C16.6866 22.3029 16.0118 22.298 15.3372 22.3021C15.2361 22.296 15.1547 22.3888 15.1516 22.4854C15.1409 22.667 15.1553 22.8493 15.1476 23.0312C15.1505 23.0523 15.147 23.0738 15.1376 23.0929C15.1282 23.112 15.1132 23.1279 15.0947 23.1384C15.0257 23.1091 14.9656 23.0634 14.9044 23.0208C14.0905 22.4489 13.132 22.0609 12.1336 22H11.6005C11.0588 22.0305 10.519 22.1233 10.0057 22.3009C9.1128 22.6084 8.30866 23.1493 7.65368 23.8261C6.88346 24.5998 6.33625 25.5979 6.12387 26.6705C6.05633 26.9906 6.02328 27.316 6 27.6416V28.3055C6.04024 29.0386 6.19284 29.7698 6.49547 30.4411C6.97456 31.5039 7.78186 32.4081 8.75326 33.0458C9.68184 33.6551 10.7987 33.9511 11.9054 33.9385C13.0122 33.9485 14.0965 33.5301 14.9628 32.8524C15.0108 32.8202 15.0984 32.7294 15.1415 32.8156C15.1631 33.0271 15.1378 33.2407 15.1519 33.4533C15.155 33.5476 15.2355 33.6401 15.3341 33.6364C16.0348 33.6384 16.7354 33.6387 17.4358 33.6364C17.5433 33.6399 17.6287 33.5344 17.6197 33.4303C17.6232 32.8084 17.6183 32.1865 17.6218 31.5646C17.8287 32.004 18.096 32.4204 18.4541 32.7527C19.0539 33.3263 19.8488 33.6539 20.6555 33.8066C21.328 33.9388 22.0166 33.9514 22.6995 33.9339C23.4214 33.9011 24.1442 33.7922 24.8294 33.5568C25.374 33.3706 25.8968 33.0964 26.3213 32.7041C26.731 32.3249 27.0196 31.8332 27.151 31.2907C27.3319 31.5543 27.5316 31.8044 27.7488 32.0391C28.5408 32.9058 29.599 33.5235 30.7449 33.7792C32.0451 34.0767 33.4507 33.9695 34.6598 33.3901C35.7918 32.853 36.7377 31.9451 37.349 30.8533C37.5168 31.5059 37.8171 32.1359 38.2882 32.6233C38.6882 33.0481 39.1958 33.3617 39.7413 33.5634C40.6842 33.9172 41.7079 33.9658 42.7049 33.9327C43.5251 33.8913 44.35 33.7531 45.1118 33.4381C45.6996 33.1947 46.2534 32.8308 46.6385 32.3173C46.9742 31.8744 47.1538 31.3292 47.1966 30.7785V30.2538C47.1343 29.5034 46.8201 28.7688 46.2761 28.242ZM14.6035 30.2239C14.286 30.7953 13.7819 31.2404 13.1754 31.4847C12.4049 31.7959 11.5146 31.839 10.7334 31.5404C10.0506 31.2867 9.47175 30.78 9.10963 30.15C8.66302 29.3841 8.52076 28.4716 8.58657 27.5956C8.6613 26.7093 8.99927 25.8264 9.62149 25.1786C10.0727 24.7077 10.665 24.3963 11.3088 24.2917C12.0221 24.1825 12.7751 24.2739 13.4269 24.5897C13.9939 24.8662 14.4486 25.3499 14.7116 25.9204C14.9947 26.5279 15.0941 27.2039 15.1047 27.8689C15.1154 28.6757 15.0024 29.5108 14.6035 30.2239ZM24.2828 31.1976C24.1158 31.493 23.8364 31.7137 23.524 31.8396C23.1398 32.0008 22.7167 32.0299 22.3052 32.0164C21.6913 31.9985 21.0464 31.8405 20.5842 31.4143C20.2273 31.0941 20.0209 30.636 19.9385 30.1693C19.929 30.0793 19.8678 29.9776 19.7649 29.9833C19.0501 29.9603 18.3348 29.9692 17.62 29.9474C17.6166 28.7165 17.6238 27.4853 17.6166 26.254C17.6979 26.4957 17.7916 26.736 17.9362 26.9478C18.2075 27.3614 18.6107 27.6709 19.0429 27.9008C19.8525 28.3296 20.7596 28.5138 21.6499 28.6912C22.3259 28.8329 23.0156 28.9659 23.6387 29.2752C23.9988 29.4568 24.3503 29.7407 24.4489 30.1503C24.5194 30.508 24.4605 30.8792 24.2828 31.1976ZM26.1793 28.1155C25.6427 27.6327 24.9783 27.3168 24.2974 27.0938C23.5746 26.8513 22.8167 26.7504 22.0822 26.5555C21.693 26.4515 21.3022 26.3331 20.9541 26.1264C20.6955 25.9718 20.463 25.7451 20.3675 25.4525C20.2555 25.1128 20.2874 24.7156 20.4952 24.4182C20.6728 24.1552 20.963 23.9908 21.2616 23.9008C21.6677 23.7836 22.0985 23.7764 22.5164 23.8276C22.9469 23.8827 23.3752 24.0512 23.6855 24.3618C23.9632 24.628 24.135 24.9901 24.208 25.3648C24.221 25.4631 24.2836 25.5715 24.3948 25.5692C25.1435 25.5775 25.8925 25.587 26.6411 25.5884C26.3057 26.384 26.1595 27.2536 26.1793 28.1155ZM34.8998 30.1368C34.6107 30.6825 34.1431 31.1271 33.5944 31.4088C32.9639 31.7269 32.229 31.8057 31.5355 31.6976C30.9527 31.6064 30.4093 31.3468 29.9721 30.9507C29.5298 30.5653 29.2317 30.0373 29.0556 29.4835C28.84 28.7978 28.7888 28.0655 28.8713 27.3528C28.9713 26.5733 29.2518 25.7859 29.8082 25.2131C30.3116 24.6826 30.987 24.3483 31.714 24.2696C32.3241 24.2029 32.9573 24.2845 33.5142 24.5509C34.1074 24.8378 34.6115 25.3134 34.9182 25.8988C35.2314 26.4932 35.3791 27.1671 35.3941 27.8362C35.4154 28.6259 35.276 29.435 34.8998 30.1368ZM43.9493 31.56C43.6136 31.85 43.169 31.9778 42.7339 32.01C42.139 32.0428 41.5171 31.9928 40.9794 31.7149C40.5353 31.4913 40.1902 31.0884 40.0252 30.6202C39.9505 30.4452 39.9332 30.2535 39.8743 30.0744C39.8128 29.9471 39.6522 29.9902 39.5386 29.975C38.9403 29.9733 38.3419 29.9557 37.7441 29.9572C38.0505 29.034 38.1198 28.0419 37.9973 27.0797C38.4077 27.618 39.0228 27.9508 39.6453 28.1851C40.6799 28.5782 41.7941 28.6719 42.8503 28.984C43.2538 29.1082 43.6596 29.2594 43.9927 29.5255C44.2143 29.7011 44.3885 29.9511 44.4304 30.2348C44.4945 30.7179 44.3252 31.2395 43.9493 31.56Z" fill="#040404"/>
</svg>
