<svg width="54" height="54" viewBox="0 0 54 54" fill="none" xmlns="http://www.w3.org/2000/svg">
<path d="M27 54C41.9117 54 54 41.9117 54 27C54 12.0883 41.9117 0 27 0C12.0883 0 0 12.0883 0 27C0 41.9117 12.0883 54 27 54Z" fill="white"/>
<path d="M11.8356 22.3506C6.57168 22.3498 6.3675 26.4468 6.39393 27.511C6.39393 27.511 6.13643 32.3013 11.7069 32.3013C16.4929 32.3013 16.7283 29.2956 16.7283 29.2956L14.5263 29.2995C14.5263 29.2995 14.0974 30.9558 11.7154 30.9115C8.65345 30.8547 8.53461 27.8879 8.53461 27.8879H17.0173C17.0177 27.8879 17.6614 22.352 11.8356 22.3506ZM8.60491 26.4349C8.60491 26.4349 8.75588 23.7525 11.7837 23.7511C14.8 23.7503 14.8 26.4349 14.8 26.4349H8.60491Z" fill="#EE3B3F"/>
<path d="M22.9103 22.3502C20.2636 22.3352 19.1249 23.9169 19.1249 23.9169V18.624H17.003L17.0388 29.8114C17.0388 29.8114 17.026 31.1143 16.9458 31.9751H19.0063L19.0946 30.7187C19.0946 30.7187 20.056 32.3009 22.865 32.3009C25.675 32.3009 27.8928 30.5713 27.952 27.3626C28.0109 24.154 25.5569 22.3643 22.9103 22.3502ZM22.4238 30.8705C19.0814 30.9131 19.1356 27.3264 19.1356 27.3264C19.1356 27.3264 19.0141 23.8732 22.4184 23.7849C25.8222 23.6962 25.7122 27.3998 25.7122 27.3998C25.7122 27.3998 25.7662 30.8287 22.4238 30.8705Z" fill="#0468B2"/>
<path d="M37.7554 29.7679C37.7605 28.3205 37.8027 27.0287 37.7554 26.1172C37.6995 25.0603 37.7997 22.51 33.2307 22.3211C33.2307 22.3211 28.8505 21.9221 28.3956 25.1822H30.6359C30.6359 25.1822 30.8099 23.6888 33.0831 23.7318C35.2344 23.7727 35.6267 24.8274 35.615 26.1248C35.615 26.1248 33.7707 26.1307 33.1556 26.1334C32.0463 26.1389 28.1662 26.2621 27.8038 28.6256C27.3727 31.4365 29.8809 32.3126 31.8437 32.3019C33.807 32.2912 34.9261 31.7034 35.7587 30.6499L35.8474 31.9584L37.7996 31.9468C37.7997 31.946 37.7494 31.2144 37.7554 29.7679ZM32.2106 30.9484C32.2106 30.9484 30.0845 30.9514 29.9591 29.252C29.8262 27.4388 33.2308 27.5484 33.2308 27.5484L35.6366 27.5454C35.6361 27.5454 36.0253 30.9978 32.2106 30.9484Z" fill="#F7AB1B"/>
<path d="M36.5942 22.7051H39.0563L42.6563 29.8841L46.2644 22.7051H48.4902L41.9759 35.5028H39.5957L41.4809 31.9458L36.5942 22.7051Z" fill="#6BB745"/>
<path d="M49.3232 23.2165V22.9514H49.2417V22.8529H49.3232V22.7148H49.4715V22.8529H49.645V22.9514H49.4715V23.1982C49.4715 23.2434 49.5005 23.2613 49.5508 23.2613C49.5841 23.2613 49.6135 23.2554 49.6433 23.2442V23.3389C49.6066 23.3546 49.5657 23.3649 49.5099 23.3649C49.4 23.3649 49.3232 23.3277 49.3232 23.2165Z" fill="#231F20"/>
<path d="M49.7958 22.853H49.9436V22.9294C49.9855 22.8846 50.0413 22.8428 50.141 22.8428C50.2335 22.8428 50.3 22.8782 50.3341 22.9314C50.3857 22.8781 50.4539 22.8428 50.5524 22.8428C50.6922 22.8428 50.7784 22.9123 50.7784 23.0354V23.3569H50.6305V23.0704C50.6305 22.9903 50.5827 22.9473 50.4988 22.9473C50.4187 22.9473 50.361 22.9916 50.361 23.0721V23.357H50.2127V23.0701C50.2127 22.9917 50.164 22.9473 50.0814 22.9473C49.9999 22.9473 49.9433 22.995 49.9433 23.0721V23.357H49.7954V22.853H49.7958Z" fill="#231F20"/>
</svg>
